<svg width="126" height="33" viewBox="0 0 126 33" fill="none" xmlns="http://www.w3.org/2000/svg">
<g filter="url(#filter0_d)">
<path d="M14.5 0.999999C14.5 7.85965 14.5 5.4386 14.5 5.4386M14.5 5.4386V5.4386C16.518 5.4386 18.1538 7.07448 18.1538 9.09244V9.47368V15.9298L24 15.9298V24M14.5 5.4386V5.4386C12.482 5.4386 10.8462 7.07448 10.8462 9.09244V9.47368V15.9298H5L5 24M10.8462 18.3509V24M18.1538 18.3509V24" stroke="white" stroke-width="2" stroke-linecap="round" stroke-linejoin="round"/>
</g>
<path d="M38.798 24.176C37.6393 24.176 36.5173 24 35.432 23.648C34.3613 23.2813 33.518 22.812 32.902 22.24L33.716 20.524C34.3027 21.052 35.0507 21.4847 35.96 21.822C36.884 22.1447 37.83 22.306 38.798 22.306C40.074 22.306 41.0273 22.0933 41.658 21.668C42.2887 21.228 42.604 20.6487 42.604 19.93C42.604 19.402 42.428 18.9767 42.076 18.654C41.7387 18.3167 41.3133 18.06 40.8 17.884C40.3013 17.708 39.59 17.51 38.666 17.29C37.5073 17.0113 36.5687 16.7327 35.85 16.454C35.146 16.1753 34.5373 15.75 34.024 15.178C33.5253 14.5913 33.276 13.8067 33.276 12.824C33.276 12.0027 33.4887 11.262 33.914 10.602C34.354 9.942 35.014 9.414 35.894 9.018C36.774 8.622 37.8667 8.424 39.172 8.424C40.0813 8.424 40.976 8.54133 41.856 8.776C42.736 9.01067 43.4913 9.348 44.122 9.788L43.396 11.548C42.7507 11.1373 42.0613 10.8293 41.328 10.624C40.5947 10.404 39.876 10.294 39.172 10.294C37.9253 10.294 36.9867 10.5213 36.356 10.976C35.74 11.4307 35.432 12.0173 35.432 12.736C35.432 13.264 35.608 13.6967 35.96 14.034C36.312 14.3567 36.7447 14.6133 37.258 14.804C37.786 14.98 38.4973 15.1707 39.392 15.376C40.5507 15.6547 41.482 15.9333 42.186 16.212C42.89 16.4907 43.4913 16.916 43.99 17.488C44.5033 18.06 44.76 18.83 44.76 19.798C44.76 20.6047 44.54 21.3453 44.1 22.02C43.66 22.68 42.9927 23.208 42.098 23.604C41.2033 23.9853 40.1033 24.176 38.798 24.176ZM53.9801 8.6C55.9747 8.6 57.5441 9.07667 58.6881 10.03C59.8321 10.9833 60.4041 12.296 60.4041 13.968C60.4041 15.64 59.8321 16.9527 58.6881 17.906C57.5441 18.8593 55.9747 19.336 53.9801 19.336H50.1741V24H47.9741V8.6H53.9801ZM53.9141 17.422C55.3074 17.422 56.3707 17.1287 57.1041 16.542C57.8374 15.9407 58.2041 15.0827 58.2041 13.968C58.2041 12.8533 57.8374 12.0027 57.1041 11.416C56.3707 10.8147 55.3074 10.514 53.9141 10.514H50.1741V17.422H53.9141ZM74.4392 12.34V22.416C74.4392 24.4547 73.9332 25.958 72.9212 26.926C71.9092 27.9087 70.3985 28.4 68.3892 28.4C67.2892 28.4 66.2405 28.246 65.2432 27.938C64.2459 27.6447 63.4392 27.2193 62.8232 26.662L63.8352 25.034C64.3779 25.5033 65.0452 25.87 65.8372 26.134C66.6439 26.4127 67.4725 26.552 68.3232 26.552C69.6872 26.552 70.6919 26.2293 71.3372 25.584C71.9972 24.9387 72.3272 23.956 72.3272 22.636V21.712C71.8285 22.3133 71.2125 22.768 70.4792 23.076C69.7605 23.3693 68.9759 23.516 68.1252 23.516C67.0105 23.516 65.9985 23.2813 65.0892 22.812C64.1945 22.328 63.4905 21.6607 62.9772 20.81C62.4639 19.9447 62.2072 18.962 62.2072 17.862C62.2072 16.762 62.4639 15.7867 62.9772 14.936C63.4905 14.0707 64.1945 13.4033 65.0892 12.934C65.9985 12.4647 67.0105 12.23 68.1252 12.23C69.0052 12.23 69.8192 12.3913 70.5672 12.714C71.3299 13.0367 71.9532 13.5133 72.4372 14.144V12.34H74.4392ZM68.3672 21.668C69.1299 21.668 69.8119 21.5067 70.4132 21.184C71.0292 20.8613 71.5059 20.414 71.8432 19.842C72.1952 19.2553 72.3712 18.5953 72.3712 17.862C72.3712 16.7327 71.9972 15.8233 71.2492 15.134C70.5012 14.43 69.5405 14.078 68.3672 14.078C67.1792 14.078 66.2112 14.43 65.4632 15.134C64.7152 15.8233 64.3412 16.7327 64.3412 17.862C64.3412 18.5953 64.5099 19.2553 64.8472 19.842C65.1992 20.414 65.6759 20.8613 66.2772 21.184C66.8932 21.5067 67.5899 21.668 68.3672 21.668ZM89.3427 12.34V24H87.3407V22.24C86.9153 22.8413 86.3507 23.3107 85.6467 23.648C84.9573 23.9707 84.202 24.132 83.3807 24.132C81.826 24.132 80.6013 23.7067 79.7067 22.856C78.812 21.9907 78.3647 20.722 78.3647 19.05V12.34H80.4767V18.808C80.4767 19.9373 80.748 20.7953 81.2907 21.382C81.8333 21.954 82.6107 22.24 83.6227 22.24C84.7373 22.24 85.6173 21.9027 86.2627 21.228C86.908 20.5533 87.2307 19.6 87.2307 18.368V12.34H89.3427ZM93.3633 12.34H95.4753V24H93.3633V12.34ZM94.4193 10.096C94.0087 10.096 93.664 9.964 93.3853 9.7C93.1213 9.436 92.9893 9.11333 92.9893 8.732C92.9893 8.35067 93.1213 8.028 93.3853 7.764C93.664 7.48533 94.0087 7.346 94.4193 7.346C94.83 7.346 95.1673 7.478 95.4313 7.742C95.71 7.99133 95.8493 8.30667 95.8493 8.688C95.8493 9.084 95.71 9.42133 95.4313 9.7C95.1673 9.964 94.83 10.096 94.4193 10.096ZM110.508 7.676V24H108.484V22.152C108.015 22.7973 107.421 23.2887 106.702 23.626C105.983 23.9633 105.191 24.132 104.326 24.132C103.197 24.132 102.185 23.8827 101.29 23.384C100.395 22.8853 99.6912 22.1887 99.1779 21.294C98.6792 20.3847 98.4299 19.3433 98.4299 18.17C98.4299 16.9967 98.6792 15.9627 99.1779 15.068C99.6912 14.1733 100.395 13.4767 101.29 12.978C102.185 12.4793 103.197 12.23 104.326 12.23C105.162 12.23 105.932 12.3913 106.636 12.714C107.34 13.022 107.927 13.484 108.396 14.1V7.676H110.508ZM104.502 22.284C105.235 22.284 105.903 22.1153 106.504 21.778C107.105 21.426 107.575 20.942 107.912 20.326C108.249 19.6953 108.418 18.9767 108.418 18.17C108.418 17.3633 108.249 16.652 107.912 16.036C107.575 15.4053 107.105 14.9213 106.504 14.584C105.903 14.2467 105.235 14.078 104.502 14.078C103.754 14.078 103.079 14.2467 102.478 14.584C101.891 14.9213 101.422 15.4053 101.07 16.036C100.733 16.652 100.564 17.3633 100.564 18.17C100.564 18.9767 100.733 19.6953 101.07 20.326C101.422 20.942 101.891 21.426 102.478 21.778C103.079 22.1153 103.754 22.284 104.502 22.284ZM125.042 18.236C125.042 18.3973 125.027 18.61 124.998 18.874H115.538C115.67 19.9007 116.117 20.7293 116.88 21.36C117.657 21.976 118.618 22.284 119.762 22.284C121.155 22.284 122.277 21.8147 123.128 20.876L124.294 22.24C123.766 22.856 123.106 23.3253 122.314 23.648C121.537 23.9707 120.664 24.132 119.696 24.132C118.464 24.132 117.371 23.8827 116.418 23.384C115.465 22.8707 114.724 22.1593 114.196 21.25C113.683 20.3407 113.426 19.314 113.426 18.17C113.426 17.0407 113.675 16.0213 114.174 15.112C114.687 14.2027 115.384 13.4987 116.264 13C117.159 12.4867 118.163 12.23 119.278 12.23C120.393 12.23 121.383 12.4867 122.248 13C123.128 13.4987 123.81 14.2027 124.294 15.112C124.793 16.0213 125.042 17.0627 125.042 18.236ZM119.278 14.012C118.266 14.012 117.415 14.32 116.726 14.936C116.051 15.552 115.655 16.3587 115.538 17.356H123.018C122.901 16.3733 122.497 15.574 121.808 14.958C121.133 14.3273 120.29 14.012 119.278 14.012Z" fill="white"/>
<defs>
<filter id="filter0_d" x="0" y="0" width="29" height="33" filterUnits="userSpaceOnUse" color-interpolation-filters="sRGB">
<feFlood flood-opacity="0" result="BackgroundImageFix"/>
<feColorMatrix in="SourceAlpha" type="matrix" values="0 0 0 0 0 0 0 0 0 0 0 0 0 0 0 0 0 0 127 0"/>
<feOffset dy="4"/>
<feGaussianBlur stdDeviation="2"/>
<feColorMatrix type="matrix" values="0 0 0 0 0 0 0 0 0 0 0 0 0 0 0 0 0 0 0.25 0"/>
<feBlend mode="normal" in2="BackgroundImageFix" result="effect1_dropShadow"/>
<feBlend mode="normal" in="SourceGraphic" in2="effect1_dropShadow" result="shape"/>
</filter>
</defs>
</svg>
